<svg width="21" height="17" viewBox="0 0 21 17" fill="none" xmlns="http://www.w3.org/2000/svg">
<path d="M20.3438 0H0.65625C0.2625 0 0 0.283333 0 0.708333V16.2917C0 16.7167 0.2625 17 0.65625 17H20.3438C20.7375 17 21 16.7167 21 16.2917V0.708333C21 0.283333 20.7375 0 20.3438 0ZM18.7688 3.4L10.8938 9.06667C10.7625 9.1375 10.6313 9.20833 10.5 9.20833C10.3687 9.20833 10.2375 9.1375 10.1062 9.06667L2.23125 3.4C1.96875 3.1875 1.90313 2.7625 2.1 2.40833C2.29688 2.125 2.69062 2.05417 3.01875 2.26667L10.5 7.65L17.9812 2.26667C18.3094 2.05417 18.7031 2.125 18.9 2.47917C19.0969 2.7625 19.0313 3.1875 18.7688 3.4Z" fill="#E0E0E0"/>
</svg>
