<svg width="16" height="16" viewBox="0 0 16 16" fill="none" xmlns="http://www.w3.org/2000/svg">
<path d="M1.3125 15.75C1.3125 15.75 0 15.75 0 14.4375C0 13.125 1.3125 9.1875 7.875 9.1875C14.4375 9.1875 15.75 13.125 15.75 14.4375C15.75 15.75 14.4375 15.75 14.4375 15.75H1.3125ZM7.875 7.875C8.91929 7.875 9.92081 7.46016 10.6592 6.72173C11.3977 5.98331 11.8125 4.98179 11.8125 3.9375C11.8125 2.89321 11.3977 1.89169 10.6592 1.15327C9.92081 0.414843 8.91929 0 7.875 0C6.83071 0 5.82919 0.414843 5.09077 1.15327C4.35234 1.89169 3.9375 2.89321 3.9375 3.9375C3.9375 4.98179 4.35234 5.98331 5.09077 6.72173C5.82919 7.46016 6.83071 7.875 7.875 7.875V7.875Z" fill="#E0E0E0"/>
</svg>
