<svg width="162" height="102" viewBox="0 0 162 102" fill="none" xmlns="http://www.w3.org/2000/svg">
<path d="M11.6387 11.7539C11.6387 9.36328 11.5059 8.16797 11.2402 8.16797C10.5762 8.16797 9.51367 11.3555 8.05273 17.7305C6.6582 24.1055 5.96094 28.2227 5.96094 30.082C9.74609 24.9688 11.6387 18.8594 11.6387 11.7539ZM12.7344 0C14.1953 0 15.3906 0.730469 16.3203 2.19141C17.3164 3.65234 17.8145 5.3125 17.8145 7.17188C17.8145 18.1289 13.8965 28.7539 6.06055 39.0469L6.35938 53.6895C6.42578 53.291 6.5918 52.4609 6.85742 51.1992C7.18945 49.8711 7.45508 48.875 7.6543 48.2109C7.85352 47.5469 8.11914 46.584 8.45117 45.3223C8.7832 43.9941 9.08203 42.9316 9.34766 42.1348C9.67969 41.3379 10.0781 40.4082 10.543 39.3457C11.0078 38.2168 11.4727 37.3203 11.9375 36.6562C12.4023 35.9922 12.9336 35.3613 13.5312 34.7637C14.1289 34.0996 14.7598 33.6348 15.4238 33.3691C16.1543 33.0371 16.8848 32.8711 17.6152 32.8711C19.2754 32.8711 20.4043 35.2285 21.002 39.9434C21.666 44.5918 21.998 49.2734 21.998 53.9883C21.998 58.6367 22.0645 60.9609 22.1973 60.9609C24.123 60.9609 27.3105 52.627 31.7598 35.959L36.6406 37.8516C35.1797 42.6328 33.8848 46.6504 32.7559 49.9043C31.627 53.0918 30.332 56.2793 28.8711 59.4668C27.4102 62.5879 25.8828 64.9453 24.2891 66.5391C22.7617 68.1328 21.168 68.9297 19.5078 68.9297C17.9805 68.9297 16.9844 67.5684 16.5195 64.8457C16.1211 62.123 15.9219 58.4043 15.9219 53.6895V50.1035C15.9219 45.5215 15.623 43.2305 15.0254 43.2305C14.627 44.1602 13.7969 47.2148 12.5352 52.3945C11.2734 57.5742 9.87891 62.0566 8.35156 65.8418C6.89062 69.6934 5.33008 71.6191 3.66992 71.6191C2.67383 71.6191 1.84375 69.1953 1.17969 64.3477C0.515625 59.5 0.183594 53.6895 0.183594 46.916C0.183594 39.3457 0.548828 32.207 1.2793 25.5C2.07617 18.7266 3.4375 12.7832 5.36328 7.66992C7.35547 2.55664 9.8125 0 12.7344 0Z" fill="url(#paint0_linear_507_35)"/>
<path d="M45.5059 33.7676C45.5059 32.8379 45.0078 32.373 44.0117 32.373C41.3555 32.373 39.2637 33.502 37.7363 35.7598C36.2754 38.0176 35.5449 40.6738 35.5449 43.7285C35.5449 44.9902 35.6777 46.0527 35.9434 46.916C42.3184 39.6113 45.5059 35.2285 45.5059 33.7676ZM45.207 59.4668C47.1328 59.4668 49.6895 57.043 52.877 52.1953C56.1309 47.2812 58.5547 41.8691 60.1484 35.959L65.0293 37.8516C62.4395 46.3516 59.2188 53.2578 55.3672 58.5703C51.582 63.8164 47.6641 66.4395 43.6133 66.4395C39.6289 66.4395 36.2754 64.2812 33.5527 59.9648C30.8965 55.6484 29.5684 50.9668 29.5684 45.9199C29.5684 40.6074 31.0293 36.0254 33.9512 32.1738C36.9395 28.2559 41.123 26.2969 46.502 26.2969C48.0957 26.2969 49.3906 26.7285 50.3867 27.5918C51.4492 28.3887 51.9805 29.5176 51.9805 30.9785C51.9805 32.9043 50.9512 35.4609 48.8926 38.6484C46.834 41.7695 45.0742 44.127 43.6133 45.7207C42.1523 47.3145 40.127 49.4727 37.5371 52.1953C38.2012 53.6562 38.7656 54.8184 39.2305 55.6816C39.7617 56.5449 40.5586 57.4082 41.6211 58.2715C42.6836 59.0684 43.8789 59.4668 45.207 59.4668Z" fill="url(#paint1_linear_507_35)"/>
<path d="M84.4531 61.1602C86.3789 61.1602 89.5996 52.7598 94.1152 35.959L98.9961 37.8516C95.3438 50.0039 92.5879 57.8398 90.7285 61.3594C88.3379 65.7422 85.8145 67.9668 83.1582 68.0332C81.8965 68.0332 80.8672 67.668 80.0703 66.9375C79.2734 66.207 78.709 65.0449 78.377 63.4512C78.0449 61.8574 77.8457 60.4297 77.7793 59.168C77.7129 57.8398 77.6797 56.0469 77.6797 53.7891V52.9922C76.9492 54.9844 76.3848 56.4785 75.9863 57.4746C75.6543 58.4043 75.0234 59.7988 74.0938 61.6582C73.2305 63.5176 72.4004 64.9121 71.6035 65.8418C70.8066 66.8379 69.7773 67.7344 68.5156 68.5312C67.2539 69.3281 65.9258 69.7266 64.5312 69.7266C63.5352 69.7266 62.7051 68.8633 62.041 67.1367C61.4434 65.4102 61.0117 62.7539 60.7461 59.168C60.4805 55.5156 60.3145 52.2617 60.248 49.4062C60.1816 46.5508 60.1484 42.7324 60.1484 37.9512V35.959C61.3438 33.9668 62.8047 32.9707 64.5312 32.9707C66.0586 32.9707 66.8223 34.5977 66.8223 37.8516C66.8223 39.1797 66.7227 40.8066 66.5234 42.7324C66.3906 44.5918 66.3242 46.6504 66.3242 48.9082C66.3242 58.6699 66.7227 63.5508 67.5195 63.5508C68.6484 63.5508 70.0762 60.8613 71.8027 55.4824C73.5957 50.0371 75.4219 44.5918 77.2812 39.1465C79.1406 33.7012 80.7012 30.9785 81.9629 30.9785C83.9551 30.9785 84.9512 32.041 84.9512 34.166C84.9512 35.0957 84.7188 38.3164 84.2539 43.8281C83.8555 49.2734 83.6562 52.4941 83.6562 53.4902C83.6562 58.6035 83.9219 61.1602 84.4531 61.1602Z" fill="url(#paint2_linear_507_35)"/>
<path d="M99.2949 19.4238C99.2949 19.0918 99.1953 18.9258 98.9961 18.9258C97.4688 18.9258 96.041 20.0879 94.7129 22.4121C93.3848 24.7363 92.7207 26.8613 92.7207 28.7871C92.7207 30.4473 93.584 31.8086 95.3105 32.8711C97.9668 24.1055 99.2949 19.623 99.2949 19.4238ZM106.865 66.1406C105.006 66.1406 103.611 65.3105 102.682 63.6504C101.752 61.9238 101.287 59.7324 101.287 57.0762C101.287 56.2793 101.32 54.9512 101.387 53.0918C101.52 51.2324 101.586 49.8379 101.586 48.9082C101.586 46.5176 101.088 44.6582 100.092 43.3301C99.0957 42.002 97.9004 41.1055 96.5059 40.6406C95.1113 40.1094 93.6836 39.6113 92.2227 39.1465C90.8281 38.6816 89.6328 37.8848 88.6367 36.7559C87.6406 35.627 87.1426 34.0664 87.1426 32.0742C87.1426 28.2891 88.7031 24.1055 91.8242 19.5234C94.9453 14.875 98.1992 12.5508 101.586 12.5508C102.848 12.5508 103.844 12.9824 104.574 13.8457C105.305 14.709 105.67 15.8047 105.67 17.1328C105.67 19.3242 104.807 22.6777 103.08 27.1934C101.354 31.6426 100.457 33.9668 100.391 34.166C102.184 34.6973 103.811 36.0586 105.271 38.25C106.799 40.4414 107.562 42.9648 107.562 45.8203C107.562 46.0195 107.496 47.1816 107.363 49.3066C107.23 51.3652 107.164 53.0586 107.164 54.3867C107.164 57.5742 107.463 59.168 108.061 59.168C110.584 59.168 113.938 51.4316 118.121 35.959L122.902 37.8516C119.98 47.5469 117.357 54.6855 115.033 59.2676C112.709 63.8496 109.986 66.1406 106.865 66.1406Z" fill="url(#paint3_linear_507_35)"/>
<path d="M129.875 90.2461C129.875 92.6367 130.008 93.832 130.273 93.832C130.938 93.832 132 90.6445 133.461 84.2695C134.922 77.8945 135.652 73.7773 135.652 71.918C131.801 77.0977 129.875 83.207 129.875 90.2461ZM141.529 58.3711C143.322 57.1094 145.746 54.752 148.801 51.2988C151.922 47.7793 153.482 44.6914 153.482 42.0352C153.482 40.3086 153.117 38.748 152.387 37.3535C151.656 35.8926 150.926 34.7305 150.195 33.8672C149.465 32.9375 149.1 32.2402 149.1 31.7754C149.1 28.7207 150.096 27.1934 152.088 27.1934C154.479 27.1934 156.57 28.6875 158.363 31.6758C160.156 34.5977 161.053 37.4863 161.053 40.3418C161.053 42.2012 160.688 44.0605 159.957 45.9199C159.293 47.7793 158.529 49.373 157.666 50.7012C156.803 52.0293 155.508 53.5898 153.781 55.3828C152.055 57.1094 150.693 58.4043 149.697 59.2676C148.768 60.0645 147.24 61.3262 145.115 63.0527C143.057 64.7129 141.795 65.7422 141.33 66.1406C141.131 70.2578 140.766 74.2422 140.234 78.0938C139.77 81.9453 139.072 85.7305 138.143 89.4492C137.213 93.2344 135.918 96.2559 134.258 98.5137C132.664 100.838 130.838 102 128.779 102C127.318 102 126.09 101.27 125.094 99.8086C124.164 98.3477 123.699 96.6875 123.699 94.8281C123.699 83.9375 127.684 73.2793 135.652 62.8535V52.9922C134.789 55.3828 134.059 57.2754 133.461 58.6699C132.93 59.998 132.1 61.6914 130.971 63.75C129.842 65.7422 128.547 67.2363 127.086 68.2324C125.691 69.2285 124.131 69.7266 122.404 69.7266C119.748 69.7266 118.354 60.1973 118.221 41.1387C118.154 38.8145 118.121 37.0879 118.121 35.959C119.316 33.9668 120.744 32.9707 122.404 32.9707C123.932 32.9707 124.695 34.5977 124.695 37.8516C124.695 39.1797 124.596 40.8066 124.396 42.7324C124.264 44.5918 124.197 46.6504 124.197 48.9082C124.197 58.6699 124.596 63.5508 125.393 63.5508C126.521 63.5508 127.949 60.8613 129.676 55.4824C131.469 50.0371 133.295 44.5918 135.154 39.1465C137.014 33.7012 138.574 30.9785 139.836 30.9785C141.828 30.9785 142.824 32.041 142.824 34.166C142.824 34.6309 142.625 38.084 142.227 44.5254C141.828 50.9668 141.596 55.582 141.529 58.3711Z" fill="url(#paint4_linear_507_35)"/>
<defs>
<linearGradient id="paint0_linear_507_35" x1="39" y1="9.3418" x2="172" y2="109.342" gradientUnits="userSpaceOnUse">
<stop offset="0.0816533" stop-color="#FF7451"/>
<stop offset="1" stop-color="#F4BB47"/>
</linearGradient>
<linearGradient id="paint1_linear_507_35" x1="39" y1="9.3418" x2="172" y2="109.342" gradientUnits="userSpaceOnUse">
<stop offset="0.0816533" stop-color="#FF7451"/>
<stop offset="1" stop-color="#F4BB47"/>
</linearGradient>
<linearGradient id="paint2_linear_507_35" x1="39" y1="9.3418" x2="172" y2="109.342" gradientUnits="userSpaceOnUse">
<stop offset="0.0816533" stop-color="#FF7451"/>
<stop offset="1" stop-color="#F4BB47"/>
</linearGradient>
<linearGradient id="paint3_linear_507_35" x1="39" y1="9.3418" x2="172" y2="109.342" gradientUnits="userSpaceOnUse">
<stop offset="0.0816533" stop-color="#FF7451"/>
<stop offset="1" stop-color="#F4BB47"/>
</linearGradient>
<linearGradient id="paint4_linear_507_35" x1="39" y1="9.3418" x2="172" y2="109.342" gradientUnits="userSpaceOnUse">
<stop offset="0.0816533" stop-color="#FF7451"/>
<stop offset="1" stop-color="#F4BB47"/>
</linearGradient>
</defs>
</svg>
