<svg width="622" height="246" viewBox="0 0 622 246" fill="none" xmlns="http://www.w3.org/2000/svg">
<path fill-rule="evenodd" clip-rule="evenodd" d="M617.717 57.56L579.024 55.7103C576.62 55.5894 574.544 57.3787 574.301 59.7603L565.815 143.081C565.463 146.563 563.338 149.634 560.206 151.205C557.753 152.426 555.41 153.031 553.176 153.031C551.646 153.031 550.189 152.523 548.818 151.507C547.446 150.492 546.232 149.21 545.224 147.699C544.192 146.176 543.415 144.556 542.856 142.815C542.286 141.086 542.006 139.575 542.006 138.245C542.006 137.629 542.031 137.048 542.091 136.492C542.14 135.936 542.225 135.356 542.322 134.739L549.68 62.2628C549.922 59.9175 548.125 57.8502 545.758 57.7414L507.198 55.9884C505.013 55.8917 503.119 57.5117 502.901 59.6757L502.864 60.0263C501.954 59.4339 501.019 58.8536 500.011 58.3217C496.49 56.4478 492.848 55.5048 489.072 55.5048C485.405 55.5048 481.957 56.0609 478.74 57.1853C475.535 58.3096 472.548 59.6999 469.792 61.3682C467.036 63.0486 464.559 64.8983 462.374 66.9294C460.177 68.9604 458.319 70.8826 456.789 72.7202L457.979 60.7154C458.234 58.1161 456.134 55.8917 453.523 55.9884L414.648 57.3545C412.487 57.427 410.714 59.0833 410.496 61.2231L402.726 137.532C402.471 140.059 401.754 142.549 400.431 144.713C397.153 150.032 391.605 152.426 384.259 152.426C382.426 152.426 380.908 152.124 379.743 151.507C378.565 150.891 377.679 150.093 377.06 149.065C376.453 148.05 376.04 146.877 375.833 145.559C375.639 144.242 375.639 142.924 375.833 141.594L383.859 63.097C384.15 60.2076 381.953 57.6809 379.039 57.5479L342.494 56.0005C339.823 55.8917 337.517 57.8743 337.25 60.5219L328.86 142.066C327.634 145.209 326.08 147.832 324.186 149.912C322.304 151.991 319.985 153.031 317.217 153.031C314.06 153.031 311.887 151.616 310.722 148.763C309.544 145.922 309.155 142.428 309.568 138.257L317.217 62.4563C317.46 60.0021 315.59 57.8381 313.113 57.7293L274.918 55.9884C272.636 55.8796 270.657 57.5721 270.426 59.8449L262.425 137.326C262.352 138.028 262.291 138.717 262.243 139.418C262.049 142.053 260.628 144.447 258.346 145.801C256.974 146.611 255.553 147.445 254.084 148.292C250.77 150.226 247.091 151.979 243.06 153.551C239.029 155.122 234.562 156.452 229.669 157.516C224.764 158.58 219.313 159.112 213.291 159.112C210.437 159.112 207.73 158.725 205.18 157.975C202.631 157.214 200.421 156.017 198.527 154.397C196.645 152.765 195.14 150.685 194.011 148.147C192.882 145.608 192.323 142.561 192.323 138.995C192.323 138.39 192.348 137.774 192.408 137.169C192.457 136.565 192.542 135.9 192.639 135.187C196.609 134.788 201.053 134.099 205.945 133.131C210.85 132.164 215.792 130.919 220.794 129.396C225.796 127.872 230.689 126.095 235.496 124.052C240.292 122.021 244.529 119.76 248.196 117.27C251.862 114.78 254.825 112.011 257.059 108.952C259.305 105.906 260.422 102.618 260.422 99.0511C260.422 92.148 259.584 86.0428 257.896 80.7597C256.209 75.4766 253.404 71.0519 249.483 67.4976C245.561 63.9433 240.377 61.2715 233.955 59.5064C227.532 57.7293 219.567 56.8347 210.085 56.8347C201.927 56.8347 194.63 57.9227 188.195 60.123C181.773 62.3112 176.115 65.2973 171.21 69.1176C166.317 72.9258 162.165 77.4472 158.741 82.682C155.318 87.9167 152.513 93.5262 150.328 99.5226C148.13 105.519 146.552 111.818 145.581 118.418C144.609 125.019 144.124 131.62 144.124 138.233V138.245C144.124 139.309 143.893 140.361 143.42 141.304C142.897 142.344 142.254 143.371 141.526 144.399C140.396 145.97 139.109 147.397 137.616 148.666C136.147 149.936 134.472 150.975 132.638 151.798C130.805 152.62 128.765 153.006 126.519 153.006C124.771 153.006 123.375 152.68 122.306 152.027C121.238 151.362 120.34 150.504 119.635 149.428C118.919 148.364 118.433 147.191 118.179 145.922C117.924 144.653 117.79 143.359 117.79 142.041C117.79 139.599 118.045 136.879 118.555 133.881C119.065 130.883 119.599 127.631 120.157 124.125C120.716 120.607 121.25 116.859 121.772 112.845C122.282 108.832 122.525 104.588 122.525 100.127C122.525 93.4174 121.833 87.4331 120.461 82.1379C119.089 76.8548 116.879 72.3817 113.881 68.7186C110.858 65.0676 106.96 62.2749 102.165 60.3406C97.3689 58.4063 91.5534 57.4391 84.7181 57.4391C79.3154 57.4391 74.4469 58.3217 70.1126 60.1109C65.7661 61.8881 61.9781 64.4027 58.7001 67.6547C59.3193 63.1816 59.9749 57.9469 60.6912 51.9626C61.2135 47.5147 61.7626 42.9737 62.3235 38.3346C62.5188 36.7195 62.7155 35.0926 62.913 33.4536C63.2374 30.7184 63.5618 28.0147 63.8823 25.3433C64.3055 21.8158 64.7219 18.3448 65.1226 14.9325L65.8511 8.77896C66.4339 3.84645 62.3302 -0.372781 57.3524 0.026172L28.2142 2.41989C22.7265 2.8672 18.3315 7.14688 17.7487 12.6113L0.035065 179.857C-0.353445 183.52 2.5361 186.724 6.23908 186.724H41.4114C44.6166 186.724 47.2997 184.306 47.6154 181.139L55.1671 106.329C55.3856 104.141 56.0655 102.013 57.146 100.091C57.8502 98.8214 58.7001 97.6004 59.6714 96.4277C60.6426 95.2671 61.7353 94.2758 62.9615 93.4658C64.1878 92.6558 65.5111 92.2447 66.9438 92.2447C70.1975 92.2447 72.4193 93.6955 73.597 96.5849C74.7625 99.4743 75.3453 103.053 75.3453 107.32C75.3453 110.887 75.0903 114.707 74.5926 118.83C74.0705 122.952 73.5484 126.857 72.9778 130.568C72.4193 134.28 71.8851 137.629 71.3752 140.627C70.8653 143.625 70.6103 145.825 70.6103 147.252C70.6103 151.205 71.0717 155.63 71.9944 160.502C72.9171 165.386 74.6897 169.932 77.3485 174.139C79.9953 178.358 83.8075 181.888 88.7489 184.729C93.7024 187.582 100.258 188.997 108.417 188.997C113.322 188.997 118.239 188.078 123.181 186.253C128.134 184.427 132.748 181.937 137.046 178.781C141.331 175.638 145.131 171.902 148.446 167.574C149.077 166.764 149.66 165.93 150.231 165.096C153.363 170.681 157.43 175.312 162.444 179.011C168.151 183.23 174.913 186.289 182.72 188.163C190.526 190.037 199.025 190.98 208.204 190.98C216.569 190.98 224.242 189.988 231.235 188.018C238.228 186.035 244.651 183.46 250.527 180.317C256.172 177.294 261.369 173.861 266.104 170.077C267.184 172.555 268.495 174.816 270.025 176.883C272.89 180.691 276.581 183.665 281.122 185.805C285.663 187.933 291.248 188.997 297.877 188.997C301.749 188.997 305.27 188.574 308.439 187.703C311.596 186.845 314.412 185.745 316.853 184.427C319.293 183.109 321.381 181.731 323.118 180.305C324.854 178.878 326.335 177.56 327.561 176.351C329.698 174.115 331.531 171.419 333.073 168.263C335.101 174.671 338.682 179.724 343.781 183.436C348.881 187.135 355.716 188.997 364.287 188.997C369.29 188.997 374.34 188.078 379.439 186.253C384.539 184.427 389.359 181.912 393.899 178.709C395.635 177.476 397.274 176.146 398.865 174.768L398.282 180.474C397.942 183.81 400.577 186.7 403.94 186.7H440.265C443.179 186.7 445.632 184.5 445.923 181.61L453.973 101.82C454.276 100.405 455.199 98.9302 456.729 97.407C458.258 95.8837 460.079 94.5055 462.168 93.2844C464.256 92.0634 466.502 91.0842 468.894 90.3225C471.298 89.5609 473.519 89.1861 475.559 89.1861C477.999 89.1861 480.598 89.4158 483.366 89.8752C486.122 90.3346 488.829 90.9633 491.476 91.7853C494.208 92.6195 496.781 93.7197 499.185 95.0979V95.11L494.827 137.351C494.523 140.3 494.365 143.238 494.365 146.188C494.365 152.39 495.009 158.108 496.284 163.331C497.558 168.566 499.635 173.087 502.476 176.895C505.341 180.703 509.032 183.677 513.572 185.817C518.113 187.957 523.698 189.009 530.327 189.009C535.22 189.009 539.384 188.634 542.796 187.873C546.207 187.111 549.145 186.095 551.598 184.826C554.05 183.557 556.114 182.033 557.79 180.256C558.385 179.628 558.967 178.999 559.538 178.334C560.534 177.185 561.565 176.061 562.61 174.961C562.525 180.51 560.157 238.963 495.361 198.995C492.302 197.109 488.307 198.898 487.737 202.44L484.106 225.108C483.766 227.2 484.786 229.255 486.656 230.282C498.214 236.593 540.234 256.662 578.721 238.709C592.319 232.362 599.955 220.635 603.998 207.349C604.933 204.786 605.734 202.211 606.39 199.624C607.203 196.42 607.859 193.349 608.381 190.411C608.891 187.462 609.304 184.669 609.595 182.033C609.899 179.398 610.214 177.052 610.518 175.021L621.967 62.5651C622.282 59.9537 620.315 57.693 617.717 57.56ZM200.336 94.5176C198.746 97.5641 197.362 100.998 196.196 104.806C195.019 108.626 194.12 112.41 193.525 116.158C196.585 115.952 199.499 115.275 202.255 114.103C205.011 112.93 207.524 111.419 209.83 109.533C212.125 107.659 214.08 105.531 215.719 103.137C215.725 103.125 215.734 103.113 215.743 103.101C215.752 103.089 215.761 103.077 215.767 103.065C218.56 98.9665 219.228 93.7559 217.746 89.0289C217.589 88.5333 217.419 88.0497 217.249 87.5903C216.435 85.4021 214.748 84.314 212.198 84.314C209.843 84.314 207.682 85.257 205.69 87.1309C203.699 89.0169 201.915 91.471 200.336 94.5176Z" fill="white"/>
</svg>
