<svg width="21" height="21" viewBox="0 0 21 21" fill="none" xmlns="http://www.w3.org/2000/svg">
<path fill-rule="evenodd" clip-rule="evenodd" d="M5.77612 7.0597H2C0.895431 7.0597 0 7.95513 0 9.0597V18.5373C0 19.6419 0.895432 20.5373 2 20.5373H18.5373C19.6419 20.5373 20.5373 19.6419 20.5373 18.5373V9.0597C20.5373 7.95513 19.6419 7.0597 18.5373 7.0597H15.403V4.81343C15.403 2.15505 13.2479 0 10.5896 0C7.93117 0 5.77612 2.15505 5.77612 4.81343V7.0597ZM7.70149 7.0597H13.4776V4.81343C13.4776 3.2184 12.1846 1.92537 10.5896 1.92537C8.99452 1.92537 7.70149 3.2184 7.70149 4.81343V7.0597ZM12.1941 14.1193C12.1941 15.1826 11.3321 16.0447 10.2687 16.0447C9.20534 16.0447 8.34332 15.1826 8.34332 14.1193C8.34332 13.0559 9.20534 12.1939 10.2687 12.1939C11.3321 12.1939 12.1941 13.0559 12.1941 14.1193Z" fill="#E0E0E0"/>
</svg>
